# xmcd
#
# Track frame offsets:
#   150
#   16034
#   31216
#   51012
#   70397
#   88747
#   105841
#   125880
#   141795
#   161403
#   178784
#   194621
#
# Disc length: 2829 seconds
#
# Revision: 0
# Processed by: cddbd v1.5.2PL0 Copyright (c) Steve Scherf et al.
# Submitted via: GXTranscoder 2.24.2978
#
DISCID=9f0b0b0c
DTITLE=Juliane Werding - Der Weg 1972 - 1999
DYEAR=1999
DGENRE=Blues
TTITLE0=Conny Kramer
TTITLE1=Wenn Du denkst..
TTITLE2=Stimmen im Wind
TTITLE3=Avalon
TTITLE4=Tränen im Ozean
TTITLE5=Sie weiss, was sie will
TTITLE6=Tarot
TTITLE7=Du schaffst es
TTITLE8=Engel wie Du
TTITLE9=Nebelmond
TTITLE10=Nacht voll Schatten
TTITLE11=Weisst Du, wer ich bin
EXTD=
EXTT0=
EXTT1=
EXTT2=
EXTT3=
EXTT4=
EXTT5=
EXTT6=
EXTT7=
EXTT8=
EXTT9=
EXTT10=
EXTT11=
PLAYORDER=
